<svg version="1.1" id="Layer_1" xmlns="http://www.w3.org/2000/svg" xmlns:xlink="http://www.w3.org/1999/xlink" x="0px" y="0px"
	 width="100%" viewBox="0 0 1024 1024" enable-background="new 0 0 1024 1024" xml:space="preserve">
<path fill="#000000" opacity="1.000000" stroke="none" 
	d="
M331.032776,529.185791 
	C348.731873,480.671967 365.161804,432.154572 376.927246,382.215302 
	C378.841919,374.088318 382.543732,368.838409 389.752411,364.586395 
	C434.430145,338.233551 476.906830,308.620056 517.865967,276.810455 
	C535.104614,263.422638 552.028503,249.648315 568.782837,235.663284 
	C570.940857,233.861938 572.992310,231.932953 575.244446,229.928406 
	C573.718689,226.806870 571.187622,224.857651 569.147522,222.528091 
	C563.138428,215.666306 563.117615,208.486206 569.487183,202.073746 
	C586.158691,185.289856 602.832214,168.504761 619.728943,151.948746 
	C630.477478,141.417007 647.080444,142.137512 659.828125,153.803116 
	C668.793091,162.007095 677.209473,170.813904 685.805603,179.416687 
	C705.471985,199.098190 725.126892,218.791397 744.726624,238.539139 
	C752.329895,246.199799 755.595032,255.456940 754.372559,266.254150 
	C753.681763,272.354767 750.659912,277.175323 746.430481,281.416138 
	C730.426086,297.463593 714.455078,313.544434 698.448730,329.589874 
	C690.810486,337.246765 683.696167,337.152832 676.018188,329.277405 
	C674.629272,327.852722 673.518921,326.156372 671.964355,324.185303 
	C666.857361,328.708130 663.634277,333.554688 660.103455,338.040588 
	C623.113098,385.035828 586.449402,432.276703 554.656494,483.050995 
	C548.469727,492.931427 542.360901,502.864410 536.436951,512.903442 
	C534.515015,516.160461 532.015564,518.301941 528.456177,519.163147 
	C467.800568,533.837891 409.750793,556.269958 351.639435,578.519531 
	C346.018982,580.671448 340.384552,582.452881 334.195831,581.426575 
	C324.914215,579.887146 318.349609,570.937622 320.185486,561.706909 
	C322.403534,550.554749 327.418671,540.301636 331.032776,529.185791 
M452.125671,353.702332 
	C436.671509,363.543030 421.298615,373.515564 405.705658,383.131195 
	C401.841095,385.514313 399.636841,388.413757 398.554901,392.705109 
	C387.200226,437.741180 373.001495,481.893707 357.076447,525.504028 
	C356.345337,527.506165 355.770508,529.491272 355.731598,531.664734 
	C357.422791,531.655762 358.025970,530.520996 358.817780,529.732788 
	C389.519836,499.168365 420.196777,468.578644 450.922058,438.037567 
	C452.975281,435.996674 453.804688,434.208771 453.048889,431.053284 
	C447.851562,409.354156 466.702332,394.402618 484.362091,398.688965 
	C498.230438,402.055023 506.757294,414.872375 504.250763,429.395905 
	C502.096405,441.878571 488.091705,452.507812 475.352936,449.929321 
	C469.062592,448.656097 465.473206,450.527161 461.466766,454.517181 
	C432.301453,483.563263 403.016205,512.488892 373.785492,541.469299 
	C372.451324,542.792053 371.276581,544.275513 369.582703,546.185852 
	C370.804352,546.019470 371.132965,546.031616 371.419403,545.927673 
	C418.955597,528.666992 466.324615,510.898743 515.470947,498.533051 
	C517.865112,497.930664 519.482117,496.604309 520.739746,494.386322 
	C524.928711,486.998566 529.240662,479.676392 533.672729,472.431366 
	C563.292603,424.011597 598.065552,379.309448 633.079651,334.782684 
	C640.152039,325.788910 647.206299,316.780853 654.119263,307.970093 
	C653.750244,307.182831 653.679382,306.813019 653.459106,306.592651 
	C634.370911,287.501984 615.238403,268.455414 596.214417,249.301102 
	C593.876709,246.947433 592.284302,247.859146 590.280212,249.477280 
	C581.210205,256.800476 572.097961,264.071411 562.994751,271.353485 
	C527.211304,299.978577 490.772980,327.722198 452.125671,353.702332 
M598.591309,216.946854 
	C628.644348,246.692276 658.697388,276.437714 688.918457,306.349426 
	C688.801880,306.378296 689.217529,306.402588 689.421936,306.206543 
	C703.365784,292.833160 717.053894,279.201294 730.257996,265.097290 
	C732.858582,262.319458 732.014099,259.215271 729.453857,256.640961 
	C700.903320,227.932983 672.364319,199.213394 643.757812,170.561188 
	C639.608398,166.405121 638.161560,166.535339 633.801758,170.834930 
	C626.328552,178.205017 618.990234,185.712173 611.497253,193.061890 
	C605.460815,198.982971 599.279907,204.756790 593.635620,210.144821 
	C594.710693,213.706039 596.688049,214.851761 598.591309,216.946854 
M477.083649,419.614716 
	C475.079132,420.890961 473.118225,422.327637 474.098663,425.074066 
	C474.718475,426.810272 476.133972,428.191315 478.059937,428.428284 
	C480.334473,428.708160 481.966003,427.217468 482.615295,425.334198 
	C484.105286,421.012695 481.252472,419.880463 477.083649,419.614716 
z"/>
<path fill="#000000" opacity="1.000000" stroke="none" 
	d="
M203.649963,671.999878 
	C203.654297,665.001404 203.767685,658.500488 203.617386,652.005554 
	C203.542328,648.762695 204.823578,647.751648 208.004227,647.619141 
	C223.352036,646.979492 223.348724,646.898987 223.348938,662.010315 
	C223.349045,670.481812 223.348953,678.953247 223.348953,687.353027 
	C225.498230,688.043640 225.993912,686.537842 226.762817,685.576416 
	C235.914902,674.132690 245.117538,662.728149 254.137589,651.181091 
	C256.066284,648.711975 258.073334,647.511230 261.253571,647.604797 
	C267.852661,647.799011 274.461456,647.663330 280.869415,647.663330 
	C281.625000,650.179871 280.167267,651.072327 279.242340,652.148315 
	C269.577698,663.390869 260.015961,674.726746 250.120346,685.763000 
	C247.166061,689.057800 247.292191,691.389221 249.764511,694.791504 
	C259.651123,708.396912 269.310272,722.167969 279.009125,735.909058 
	C280.028748,737.353638 281.464691,738.637390 281.573120,741.265747 
	C273.765259,741.265747 266.024933,741.342896 258.287994,741.215149 
	C256.178864,741.180298 255.464264,739.099060 254.508621,737.569031 
	C248.332932,727.681763 242.179840,717.780457 235.996201,707.898193 
	C235.129959,706.513794 234.136856,705.208801 232.991577,703.564270 
	C227.508575,708.829529 221.906723,713.298462 223.210739,722.048218 
	C223.963654,727.100220 223.263977,732.359558 223.352951,737.523315 
	C223.400406,740.277466 222.262695,741.554688 219.504120,741.356750 
	C219.173035,741.332947 218.837891,741.359985 218.504837,741.370056 
	C203.652008,741.820068 203.651306,741.820190 203.650620,726.987244 
	C203.649780,708.824829 203.650269,690.662354 203.649963,671.999878 
z"/>
<path fill="#000000" opacity="1.000000" stroke="none" 
	d="
M568.061096,805.716736 
	C578.117737,805.781006 576.510925,804.885315 579.119995,813.831360 
	C581.955811,823.555054 584.528137,833.355530 587.238770,843.116028 
	C587.671021,844.672363 588.226562,846.194458 588.882141,848.216675 
	C591.104065,846.316345 591.153748,844.093994 591.610229,842.144775 
	C594.032104,831.802246 596.466370,821.460510 598.674316,811.071289 
	C599.498535,807.193115 601.197327,805.306824 605.420837,805.652283 
	C609.499023,805.985840 613.625854,805.724426 618.572998,805.724426 
	C616.255798,814.514771 614.234985,822.345520 612.123962,830.151917 
	C608.567627,843.303345 604.861328,856.415100 601.427429,869.598083 
	C600.534485,873.026367 599.092346,874.444885 595.327271,874.444458 
	C581.337097,874.442871 581.372681,874.576538 577.448242,860.873535 
	C574.758545,851.482117 571.952759,842.124084 568.777710,831.317688 
	C565.713074,841.956299 563.064819,851.273499 560.343140,860.569214 
	C555.985474,875.452332 555.968689,875.383911 540.498901,874.413208 
	C537.897888,874.250000 536.560547,873.271484 535.911133,870.847534 
	C530.321899,849.985535 524.694153,829.133789 519.097046,808.273865 
	C518.975647,807.821472 519.081787,807.307983 519.081787,806.265503 
	C524.461365,805.264160 529.877319,805.578918 535.247986,805.964722 
	C537.767151,806.145752 537.843994,808.675171 538.305603,810.551636 
	C541.358276,822.961487 544.366455,835.382324 547.396057,847.797852 
	C547.584900,848.571777 547.831360,849.331665 548.287048,850.921753 
	C551.883728,837.622803 555.524719,825.231934 558.492310,812.681824 
	C559.756592,807.335144 562.008179,804.726440 568.061096,805.716736 
z"/>
<path fill="#000000" opacity="1.000000" stroke="none" 
	d="
M358.322205,740.696899 
	C349.964386,743.919861 342.036438,744.007324 334.359924,739.912659 
	C326.405640,735.669800 322.415558,728.802246 322.864502,719.910217 
	C323.317627,710.934875 328.568970,705.275452 337.028076,702.597961 
	C344.221527,700.321106 351.647583,699.705872 359.158417,699.594238 
	C361.997498,699.552063 365.946655,700.167664 366.387848,696.207947 
	C366.806793,692.448303 364.898895,689.148804 361.011261,687.488281 
	C354.187286,684.573486 348.431152,686.250488 344.532715,692.674866 
	C343.670288,694.096069 342.755157,694.440796 341.367004,694.435608 
	C337.872528,694.422668 334.377777,694.437805 330.883789,694.391479 
	C329.734161,694.376282 328.586609,694.207275 326.967804,694.068176 
	C325.746246,686.989014 328.834808,681.743225 333.946442,677.634521 
	C344.292755,669.317932 365.854095,669.425842 376.242584,677.615784 
	C381.565613,681.812378 384.121887,687.580444 384.242554,694.124512 
	C384.503265,708.264099 384.238403,722.412720 384.397522,736.555359 
	C384.439484,740.283813 383.069824,741.697510 379.440796,741.397034 
	C377.292450,741.219116 375.114258,741.299438 372.954376,741.385559 
	C369.273132,741.532166 365.689056,741.642944 366.375031,735.972412 
	C363.453491,737.700989 361.063385,739.115112 358.322205,740.696899 
M352.338348,728.530518 
	C353.956085,728.190613 355.601135,727.946533 357.186829,727.494324 
	C364.099915,725.522522 367.606659,719.325134 365.864044,711.887451 
	C363.803070,712.080383 361.698547,712.256104 359.599121,712.479736 
	C357.298401,712.724792 355.008575,713.158813 352.703186,713.257629 
	C345.068512,713.585083 342.145233,715.245056 341.556091,719.785339 
	C340.991638,724.135315 344.271027,727.013245 352.338348,728.530518 
z"/>
<path fill="#000000" opacity="1.000000" stroke="none" 
	d="
M790.483032,724.471069 
	C796.888977,717.251221 803.963013,722.467529 811.302368,721.921692 
	C808.755310,730.402405 803.912415,736.041809 796.931946,739.232666 
	C783.964783,745.159973 771.115173,744.798157 759.104858,736.358398 
	C751.984375,731.354675 748.329407,724.032410 747.208435,715.746826 
	C745.543640,703.441650 746.126526,691.339722 755.282104,681.521484 
	C764.865601,671.244324 776.867432,669.535950 789.702087,673.123352 
	C802.241394,676.628174 808.773315,686.108337 811.231873,698.290161 
	C814.226318,713.126831 813.939758,713.184326 798.923706,713.194397 
	C789.260193,713.200867 779.595337,713.303711 769.933716,713.172668 
	C765.602478,713.113892 764.666321,714.670959 766.217407,718.627930 
	C768.774963,725.152710 774.773376,728.699524 782.221375,727.482178 
	C784.990234,727.029541 787.794128,726.403320 790.483032,724.471069 
M766.070435,697.033508 
	C765.413391,700.271240 767.863220,699.568970 769.494263,699.596680 
	C774.463135,699.681458 779.437866,699.741943 784.403381,699.587341 
	C787.600159,699.487854 790.938110,700.340271 793.996521,698.853333 
	C793.151367,691.760681 788.408264,687.011292 781.811279,686.375671 
	C773.952515,685.618530 768.707581,688.975586 766.070435,697.033508 
z"/>
<path fill="#000000" opacity="1.000000" stroke="none" 
	d="
M470.719055,708.123535 
	C466.409943,696.425781 462.217560,685.097534 457.659729,672.781860 
	C464.405121,672.781860 470.001984,672.720459 475.596497,672.808289 
	C478.306671,672.850769 478.423645,675.330444 479.021149,677.112122 
	C483.193268,689.553040 487.277649,702.023438 491.402710,714.480164 
	C491.760284,715.559937 492.208618,716.609680 492.903687,718.429932 
	C497.345337,704.737183 501.778625,691.875549 505.612457,678.837646 
	C507.058533,673.919983 509.395844,671.968323 514.407593,672.632935 
	C518.149719,673.129211 522.020935,672.141785 525.756775,673.279053 
	C526.431458,675.698303 525.265991,677.637085 524.572266,679.627258 
	C516.469360,702.872803 508.401794,726.130981 500.183167,749.335632 
	C494.853516,764.383484 483.624878,770.517761 467.949585,767.364197 
	C466.123474,766.996826 465.247681,766.097900 465.227325,764.423340 
	C465.181274,760.636719 464.580170,756.802002 465.768616,753.173523 
	C467.512634,752.207336 469.206818,752.736084 470.835144,752.661987 
	C479.797150,752.254272 484.698181,745.232300 481.630859,736.955811 
	C478.104736,727.441467 474.440216,717.978394 470.719055,708.123535 
z"/>
<path fill="#000000" opacity="1.000000" stroke="none" 
	d="
M644.158142,875.347656 
	C628.663818,874.537720 619.737610,863.365356 622.684082,849.043823 
	C624.383362,840.784363 631.411865,835.124390 642.077637,833.702026 
	C648.165649,832.890137 654.282104,832.135681 660.409546,831.825500 
	C665.020752,831.592041 665.183411,828.968994 664.325378,825.745605 
	C663.267517,821.771973 660.401672,819.631226 656.328308,819.360718 
	C651.438660,819.035950 646.176392,818.645996 643.902649,824.243958 
	C642.757874,827.062439 641.269226,827.606445 638.699158,827.406555 
	C634.269592,827.062134 629.754272,827.985596 625.104309,826.657776 
	C625.175781,817.788208 629.145813,811.479004 636.947327,807.979736 
	C647.996277,803.023987 659.344360,803.113953 670.329590,808.093872 
	C678.164856,811.645874 682.051819,818.487427 682.242859,826.906067 
	C682.567810,841.229614 682.288818,855.565796 682.436646,869.894897 
	C682.473511,873.471863 680.983459,874.675598 677.653503,874.387390 
	C676.165100,874.258545 674.653870,874.317993 673.156677,874.380127 
	C669.122498,874.547363 664.917786,875.073486 664.455322,868.462646 
	C658.337402,873.658142 651.934570,875.998413 644.158142,875.347656 
M641.982117,857.505371 
	C646.491455,861.298340 653.619629,861.942078 658.601990,859.006348 
	C663.563843,856.082520 665.355835,851.460999 663.929810,844.414917 
	C658.463379,845.005432 652.900696,845.422913 647.399353,846.249023 
	C641.098694,847.195190 639.197388,850.866089 641.982117,857.505371 
z"/>
<path fill="#000000" opacity="1.000000" stroke="none" 
	d="
M513.382324,830.024170 
	C517.238159,846.490051 512.502930,862.637817 501.217926,869.884338 
	C489.504059,877.406311 476.936584,877.596069 464.648529,871.553772 
	C452.881775,865.767822 448.977844,855.062805 448.664764,842.649048 
	C448.522064,836.991333 448.625671,831.372009 450.378937,825.893250 
	C454.913300,811.724182 466.727875,804.190369 483.780060,804.671021 
	C498.584015,805.088318 509.552399,814.336182 513.382324,830.024170 
M467.353668,834.995300 
	C467.361786,838.649231 467.152344,842.319214 467.419342,845.954102 
	C468.178467,856.289429 478.172058,862.784058 486.921265,858.704773 
	C493.055847,855.844727 495.455444,850.557983 495.617706,844.179626 
	C495.828613,835.887329 496.681549,827.260742 487.949738,822.021179 
	C487.527039,821.767578 487.052246,821.599731 486.598724,821.398682 
	C479.687775,818.334351 468.982880,821.870667 467.353668,834.995300 
z"/>
<path fill="#000000" opacity="1.000000" stroke="none" 
	d="
M689.788208,741.259033 
	C685.311646,741.324707 681.312073,741.288330 677.314331,741.356812 
	C674.785278,741.400146 673.699829,740.243774 673.702087,737.743713 
	C673.720459,717.247986 673.718872,696.752319 673.680847,676.256653 
	C673.676086,673.698120 674.831787,672.634766 677.323853,672.703552 
	C679.487915,672.763367 681.664917,672.815918 683.819824,672.653748 
	C688.449341,672.305298 692.637024,672.479614 692.587280,679.404541 
	C698.691101,674.438660 704.756958,671.450378 712.157410,671.590027 
	C726.324707,671.857483 735.838745,680.633179 736.197144,694.874329 
	C736.549255,708.862671 736.203369,722.867371 736.318542,736.863708 
	C736.347778,740.408569 734.837891,741.342590 731.517212,741.428345 
	C717.647156,741.786377 717.649963,741.874329 717.650208,728.008423 
	C717.650330,719.510071 717.691223,711.011353 717.636292,702.513367 
	C717.574402,692.942200 713.801208,688.411011 705.994751,688.376709 
	C697.492188,688.339417 692.385864,693.653625 692.350281,702.681030 
	C692.306946,713.678772 692.379150,724.677246 692.273865,735.674255 
	C692.255005,737.643616 693.204590,740.197083 689.788208,741.259033 
z"/>
<path fill="#000000" opacity="1.000000" stroke="none" 
	d="
M424.763123,698.135803 
	C431.823883,699.661133 438.386261,701.349548 444.730988,703.976013 
	C459.007141,709.885864 457.789581,727.972839 449.158936,735.547913 
	C437.290802,745.964539 413.364838,745.644653 402.137238,734.562866 
	C398.293732,730.769287 396.398254,726.114746 396.425385,720.130127 
	C401.867706,719.212341 407.300018,719.714844 412.699768,719.785889 
	C414.534973,719.809998 414.880280,721.534546 415.678375,722.777344 
	C419.358215,728.507751 427.791962,730.515320 433.792572,727.161011 
	C438.531982,724.511719 438.746948,720.377869 434.180450,717.460815 
	C430.462738,715.085938 426.073517,714.569885 421.918976,713.423218 
	C417.599609,712.231140 413.221558,711.219055 408.968079,709.826233 
	C392.901581,704.564758 394.962860,686.159241 403.467224,678.742126 
	C414.067291,669.497192 435.590149,669.147034 446.288055,678.200867 
	C447.424194,679.162354 448.521576,680.242249 449.373962,681.452393 
	C451.583405,684.589233 454.479248,688.182861 452.782623,691.860046 
	C451.307617,695.056824 447.080505,693.057678 444.090363,693.332458 
	C439.954773,693.712585 436.264099,693.641785 433.434845,689.206665 
	C431.099884,685.546387 422.429535,685.114319 418.565674,687.442078 
	C416.771790,688.522766 415.361084,689.955811 415.462189,692.208008 
	C415.565002,694.498779 417.180023,695.779419 419.107056,696.528809 
	C420.799316,697.186890 422.615967,697.525085 424.763123,698.135803 
z"/>
<path fill="#000000" opacity="1.000000" stroke="none" 
	d="
M382.442993,822.722839 
	C378.161987,818.315186 373.113434,818.768188 368.147675,819.590027 
	C365.505646,820.027222 363.621155,821.935486 363.496277,824.763550 
	C363.374847,827.513367 365.332977,828.914001 367.715942,829.645264 
	C374.863159,831.838501 382.382477,832.601868 389.391724,835.365540 
	C395.171631,837.644470 400.119263,840.724060 402.214905,847.025452 
	C405.171600,855.915771 401.244049,865.726990 392.580872,871.005554 
	C381.588013,877.703613 363.063446,876.922913 352.715454,869.255737 
	C347.435516,865.343628 344.915588,860.011963 344.597900,852.711426 
	C349.903564,852.711426 354.843079,852.752686 359.781250,852.690430 
	C361.672913,852.666565 362.218414,854.051270 363.062500,855.283203 
	C366.697632,860.588684 375.541687,862.790833 381.365417,859.896729 
	C385.712769,857.736389 386.123749,853.190308 382.153534,850.346436 
	C378.810242,847.951538 374.727692,847.535156 370.911804,846.429199 
	C366.448212,845.135498 361.927673,844.030334 357.491364,842.651611 
	C341.250793,837.604492 343.364532,818.793335 352.345306,811.317993 
	C362.671112,802.723145 382.882935,802.230225 393.563293,810.539001 
	C395.124146,811.753296 396.595123,813.202087 397.741547,814.804443 
	C399.880432,817.793762 402.394592,821.331421 400.801483,824.841492 
	C399.379181,827.975159 395.368134,826.241272 392.573669,826.212402 
	C389.078827,826.176270 384.649750,828.121704 382.442993,822.722839 
z"/>
<path fill="#000000" opacity="1.000000" stroke="none" 
	d="
M535.757202,728.010376 
	C529.685181,715.094177 529.486389,702.186218 534.354492,689.405212 
	C538.075806,679.635132 545.821777,673.994690 556.075378,672.303528 
	C568.247192,670.295837 579.720032,671.909607 589.041199,680.882446 
	C593.721313,685.387756 596.426941,690.954468 596.382385,698.311401 
	C590.762878,698.311401 585.481812,698.288269 580.201050,698.322632 
	C578.031433,698.336731 577.487671,696.682617 576.846191,695.174561 
	C574.425842,689.484192 569.691162,687.354492 564.010498,687.511536 
	C558.250854,687.670898 553.664368,690.494507 551.591125,696.036804 
	C548.760803,703.602783 548.805542,711.376648 551.686523,718.943115 
	C553.800476,724.495239 558.313843,727.347107 564.071655,727.496277 
	C569.565552,727.638489 574.291565,725.459167 576.570557,720.071106 
	C577.771362,717.231995 579.589478,716.543884 582.367065,716.624756 
	C587.132568,716.763550 591.905029,716.663208 596.683350,716.663208 
	C596.183289,728.806885 587.810547,738.206909 575.037720,741.756958 
	C559.364685,746.113159 544.036133,740.860046 535.757202,728.010376 
z"/>
<path fill="#000000" opacity="1.000000" stroke="none" 
	d="
M621.002441,741.376099 
	C616.504639,741.367249 612.504395,741.284912 608.507996,741.374329 
	C605.756531,741.435791 604.836670,740.238647 604.609802,737.522217 
	C604.027710,730.550110 605.529297,724.904419 610.864197,719.607849 
	C620.162720,710.376221 628.555908,700.232788 637.193359,690.622009 
	C636.022949,687.756104 633.936646,688.426636 632.250916,688.409668 
	C624.587524,688.332458 616.920715,688.257874 609.259888,688.413635 
	C605.795959,688.484070 604.276245,687.197144 604.714783,683.734924 
	C604.735596,683.570679 604.723145,683.402100 604.724365,683.235535 
	C604.801697,672.692078 604.805176,672.685974 615.089050,672.684082 
	C628.584595,672.681641 642.083862,672.865601 655.573547,672.584595 
	C660.274597,672.486694 661.272827,674.185059 661.512756,678.598389 
	C661.882568,685.400879 659.935120,690.463379 654.996826,695.359863 
	C646.612915,703.672852 639.035706,712.800171 631.138977,721.602722 
	C630.286377,722.553101 629.125732,723.354614 629.004028,725.680908 
	C636.705566,725.680908 644.284485,725.596252 651.860901,725.700500 
	C663.648376,725.862549 662.074951,723.793091 662.370361,736.440002 
	C662.466370,740.552063 660.694763,741.478760 656.989136,741.428467 
	C645.161926,741.267822 633.331116,741.373169 621.002441,741.376099 
z"/>
<path fill="#000000" opacity="1.000000" stroke="none" 
	d="
M418.260834,782.959534 
	C422.552399,782.762390 426.393707,782.876221 430.207886,782.606445 
	C434.070312,782.333252 435.533783,783.711914 435.420197,787.707947 
	C435.193085,795.696533 435.401276,803.697632 435.450775,811.693420 
	C435.452667,812.000061 435.672882,812.305298 435.823334,812.693665 
	C438.146820,813.453430 439.613129,810.797791 441.844055,811.121948 
	C446.486023,817.641479 445.455688,823.115295 438.541199,826.779480 
	C435.853363,828.203796 435.295105,830.121826 435.314026,832.846680 
	C435.397308,844.841980 435.226440,856.840210 435.412567,868.833191 
	C435.473541,872.761780 434.498932,874.444336 430.168762,874.463989 
	C416.668671,874.525208 416.669647,874.691345 416.670502,861.119080 
	C416.670959,853.819946 416.670563,846.520752 416.670563,839.162048 
	C413.749146,838.547363 411.961151,840.992065 409.621704,840.617188 
	C407.124725,832.893066 408.238007,828.804749 414.397766,824.861145 
	C416.729614,823.368286 416.657562,821.419495 416.660034,819.261902 
	C416.671783,809.098694 416.638367,798.935181 416.715973,788.772522 
	C416.730621,786.856140 416.088318,784.728821 418.260834,782.959534 
z"/>
<path fill="#000000" opacity="1.000000" stroke="none" 
	d="
M292.654297,723.998474 
	C292.657623,700.188782 292.764496,676.878052 292.575592,653.569763 
	C292.538849,649.037354 293.868652,647.523682 298.484558,647.566101 
	C311.318146,647.684143 311.314880,647.496216 311.311584,660.561157 
	C311.305298,685.369507 311.183777,710.179016 311.404907,734.985352 
	C311.449280,739.965515 310.088287,741.623169 304.958099,741.497437 
	C292.674683,741.196350 292.668488,741.446655 292.657501,728.993835 
	C292.656189,727.495300 292.655548,725.996826 292.654297,723.998474 
z"/>
</svg>