<svg version="1.1" id="Layer_1" xmlns="http://www.w3.org/2000/svg" xmlns:xlink="http://www.w3.org/1999/xlink" x="0px" y="0px"
	 width="100%" viewBox="0 0 1024 1024" enable-background="new 0 0 1024 1024" xml:space="preserve">
<path fill="#000000" opacity="1.000000" stroke="none" 
	d="
M377.553864,162.494080 
	C423.288574,154.021942 464.937347,135.471924 506.223114,115.989639 
	C511.089722,113.693153 515.022217,113.810471 519.842163,116.110130 
	C544.961182,128.094666 571.101013,137.609268 597.082153,147.506332 
	C601.047852,149.016998 603.195679,147.809280 605.299622,144.514053 
	C611.753357,134.406448 618.523438,124.500587 624.956238,114.380089 
	C628.787903,108.351814 633.949463,104.347633 640.609863,101.850990 
	C649.056946,98.684631 657.693481,96.351852 666.571106,94.873146 
	C671.745483,94.011284 675.377625,95.910095 677.153931,100.960640 
	C681.281006,112.694313 683.349243,124.853439 682.096436,137.248688 
	C681.378601,144.351013 676.292664,149.851639 673.092957,156.034622 
	C671.670837,158.782867 669.446838,161.150375 668.778809,164.849609 
	C676.413330,166.660309 684.008972,167.038803 691.551208,167.598984 
	C700.377441,168.254547 709.171448,166.904190 717.985474,166.729828 
	C728.432556,166.523178 733.341248,171.481033 733.342651,181.901718 
	C733.352600,256.227936 734.018127,330.562653 733.083618,404.877136 
	C732.537598,448.300262 717.211670,486.752686 687.723206,519.244080 
	C661.449768,548.193115 629.795349,570.199219 596.869263,590.613708 
	C574.634827,604.399292 551.718689,616.944153 528.411133,628.851013 
	C517.427856,634.461853 508.045593,634.448181 497.035187,628.510620 
	C467.241455,612.443909 438.208405,595.172424 409.801056,576.807678 
	C400.443054,570.757996 399.462036,571.149170 397.461182,582.051514 
	C393.577454,603.213501 373.858734,615.044250 353.618042,608.356445 
	C339.134460,603.570801 329.855194,588.348694 330.673462,570.716919 
	C331.287079,557.495056 341.442169,546.174988 355.891052,542.610291 
	C357.317322,542.258423 358.843964,542.149841 360.244293,540.598145 
	C353.281677,534.692932 347.198669,527.978210 341.059357,521.297546 
	C316.369385,494.430298 301.199585,462.944031 294.999481,427.096130 
	C293.469482,418.249847 292.801575,409.261871 292.772552,400.277557 
	C292.649323,362.114899 293.045868,323.945740 292.466095,285.790894 
	C291.944550,251.465927 291.917572,217.143066 291.685242,182.819244 
	C291.601013,170.375824 296.372162,165.691116 308.921906,165.711182 
	C331.706696,165.747604 354.544586,166.936844 377.553864,162.494080 
M694.386719,471.936554 
	C705.084412,451.554260 711.206909,429.651489 711.427734,406.853760 
	C712.108704,336.548126 711.745361,266.232635 711.947205,195.921448 
	C711.961365,190.986313 710.650574,189.094925 705.492371,189.301056 
	C690.153564,189.914047 674.876526,189.041809 659.928772,185.257736 
	C656.155212,184.302429 654.899414,186.477615 653.365845,188.904037 
	C627.920654,229.163361 602.372559,269.356903 577.741943,310.126038 
	C556.816101,344.763031 537.112061,380.131042 515.419373,414.306915 
	C504.441559,431.601929 493.401733,448.858917 482.208954,466.015015 
	C479.861938,469.612457 479.951569,471.849487 483.888031,473.978088 
	C487.246033,475.793915 490.355682,478.075867 493.540924,480.202881 
	C501.848602,485.750366 510.221741,491.205902 518.398804,496.940460 
	C522.568420,499.864594 523.425171,504.331757 522.098816,509.013367 
	C520.867126,513.361206 517.357727,515.435791 513.116699,515.824341 
	C509.087952,516.193481 505.822815,513.800842 502.583282,511.788055 
	C488.296234,502.911224 474.005249,494.039276 459.813751,485.011444 
	C456.808075,483.099396 454.757019,483.101685 452.850281,486.291199 
	C440.461395,507.014740 428.055939,527.728516 415.575867,548.397156 
	C413.879425,551.206604 414.609253,552.991760 417.126862,554.613647 
	C421.046143,557.138550 424.876556,559.801941 428.806702,562.309265 
	C454.085114,578.435730 479.583191,594.192017 506.096527,608.244629 
	C509.625580,610.115112 512.691956,610.944824 516.811462,608.981567 
	C561.786377,587.547729 604.389771,562.280212 643.203369,530.931824 
	C663.536926,514.509094 681.953979,496.273224 694.386719,471.936554 
M394.614014,399.956299 
	C360.303436,374.133606 345.207306,339.784363 351.831696,297.401642 
	C359.960602,245.393021 410.203156,207.874207 464.618439,212.942093 
	C490.468872,215.349640 512.355530,226.665070 529.930969,246.000626 
	C531.190002,247.385681 532.095398,249.485901 534.852478,249.362854 
	C552.652161,222.689575 570.527222,195.903229 588.331726,169.222717 
	C586.611877,167.360657 584.707275,167.116837 583.037598,166.428406 
	C561.188538,157.419662 538.602173,150.258148 517.161133,140.246414 
	C513.621338,138.593536 510.792786,138.683578 507.337555,140.345932 
	C488.131470,149.586121 468.731445,158.421539 448.752197,165.875458 
	C424.256775,175.014282 399.331909,182.522629 373.384399,186.586929 
	C355.697052,189.357391 337.901001,189.237244 320.139771,190.123718 
	C315.669373,190.346832 314.093842,191.684036 314.244965,196.307571 
	C314.729187,211.121567 314.942261,225.948776 314.994171,240.771805 
	C315.173309,291.927032 315.321442,343.082703 315.287445,394.238098 
	C315.279694,405.927307 316.353271,417.445038 318.321808,428.939697 
	C324.098236,462.669250 339.940460,490.871765 364.853058,514.120300 
	C366.515015,515.671204 367.958252,517.645447 370.719788,518.180115 
	C371.617554,517.140930 372.685089,516.106140 373.519775,514.908997 
	C386.091858,496.877167 398.391174,478.644684 411.980682,461.352020 
	C414.975311,457.541351 414.124023,455.548767 410.372864,453.217651 
	C396.652557,444.691437 383.021240,436.020142 369.433075,427.284149 
	C364.856445,424.341705 359.726746,422.005646 356.941864,416.846741 
	C353.029663,409.599518 356.995575,401.541962 364.898224,400.719879 
	C369.072571,400.285614 372.259094,402.548309 375.477142,404.565247 
	C386.625946,411.552979 397.704132,418.653229 408.818665,425.695740 
	C410.745972,426.916931 412.884003,428.970367 414.955566,426.421021 
	C417.941223,422.746674 421.372528,419.321655 423.506104,414.427246 
	C413.485138,410.438812 403.749176,406.557312 394.614014,399.956299 
M411.123871,246.667038 
	C382.635040,266.128143 369.269257,292.694824 373.298004,327.377472 
	C376.937500,358.708710 402.173462,387.040802 432.668182,394.343109 
	C436.610474,395.287140 438.887146,394.027313 440.881073,390.721191 
	C455.599091,366.317413 472.009399,343.027679 488.059296,319.503998 
	C494.630310,309.873169 501.436249,300.398193 508.316376,290.984650 
	C511.655060,286.416595 516.750610,285.537476 521.115173,288.294312 
	C525.057922,290.784698 526.460510,295.969666 524.365540,300.670990 
	C523.691406,302.183746 522.834106,303.628510 521.941101,305.028168 
	C503.033386,334.661896 483.607178,363.949310 463.333313,392.669739 
	C462.596344,393.713715 461.395233,394.613190 462.243591,396.542542 
	C464.823578,397.378418 467.684052,396.955994 470.371094,396.448944 
	C516.344604,387.773987 543.365784,343.530426 535.264587,301.353180 
	C524.206421,243.781113 461.674377,216.158676 411.123871,246.667038 
M659.623779,127.587646 
	C658.503906,119.358833 657.914490,119.055298 650.424194,122.388931 
	C647.434387,123.719574 645.151855,125.651199 643.386414,128.467407 
	C637.460815,137.920074 631.624146,147.444092 625.299133,156.627930 
	C599.890381,193.521072 575.664307,231.229446 549.083435,267.313873 
	C547.539490,269.409790 547.298645,271.259155 548.459290,273.728088 
	C552.006897,281.275024 554.437744,289.225677 556.219177,297.371765 
	C556.593445,299.083099 556.522766,301.018402 558.439941,301.997009 
	C560.125000,301.092438 560.608093,299.401733 561.411743,297.988556 
	C570.878479,281.340454 580.213928,264.616943 589.774231,248.022949 
	C611.227661,210.785767 633.622559,174.113754 656.343201,137.639297 
	C658.107361,134.807129 659.944214,131.988861 659.623779,127.587646 
M477.093201,438.653290 
	C482.441925,429.911102 488.935089,421.845551 493.203888,412.343201 
	C478.605255,417.815308 463.947174,420.121765 448.772186,419.092438 
	C445.927856,418.899475 444.677673,420.774963 443.425781,422.837494 
	C440.749634,427.246552 438.183746,431.741211 435.212769,435.946503 
	C433.023682,439.045105 433.067810,441.157715 436.375824,443.319855 
	C443.904663,448.240692 451.355225,453.284760 458.752686,458.401489 
	C461.671112,460.420105 463.523163,459.656494 465.279419,456.866516 
	C469.005920,450.946747 472.880585,445.120239 477.093201,438.653290 
M422.001404,475.410828 
	C408.472290,498.368683 394.468842,521.050110 381.936310,544.589111 
	C380.419830,547.437378 380.759308,548.986084 383.412048,550.673401 
	C385.979584,552.306458 387.320190,551.264160 388.683563,549.170105 
	C404.591339,524.736816 419.958557,499.969330 434.930695,474.951447 
	C437.449066,470.743317 435.756348,468.754883 432.316620,466.577515 
	C428.582794,464.213989 427.291595,466.797791 425.756531,469.240906 
	C424.604431,471.074463 423.489166,472.931183 422.001404,475.410828 
M376.127838,573.395264 
	C374.615723,567.823669 370.861450,564.386780 365.304626,563.728760 
	C360.805511,563.196045 356.849823,565.140991 354.265717,569.139893 
	C351.375916,573.611816 351.743927,579.466309 355.101562,583.557495 
	C358.387146,587.560852 363.740295,589.013672 368.666901,587.239014 
	C373.749268,585.408264 376.619019,580.526733 376.127838,573.395264 
z"/>
<path fill="#000000" opacity="1.000000" stroke="none" 
	d="
M436.101318,878.067871 
	C438.040070,878.701599 439.636261,879.484070 441.247314,879.515930 
	C454.319183,879.774475 456.116333,876.791199 453.974854,863.709900 
	C450.671295,864.877563 447.500275,866.360657 444.164459,867.114258 
	C430.167267,870.276306 417.278992,862.751343 412.801086,849.059448 
	C410.208557,841.132446 409.561401,832.891235 411.183289,824.890076 
	C414.774750,807.172241 433.171143,797.729431 450.726135,804.084534 
	C453.617065,805.131104 455.592102,805.947510 459.090271,803.804932 
	C463.081665,801.360107 468.790741,802.635254 473.734131,803.405579 
	C475.085358,803.616089 475.254425,804.984131 475.326111,806.202881 
	C476.636810,828.487427 477.860718,850.761108 472.721283,872.800964 
	C469.286469,887.530762 463.312408,893.557739 448.402740,894.778503 
	C437.398499,895.679443 426.827850,893.239746 418.198975,885.545349 
	C415.016693,882.707764 412.813385,879.286499 412.967499,873.785278 
	C420.837891,874.572144 429.080902,870.568481 436.101318,878.067871 
M434.904388,848.689392 
	C438.819885,851.346252 442.915558,852.376465 447.632751,850.826660 
	C455.330597,848.297607 458.079193,842.305115 458.367584,835.080566 
	C458.626160,828.603760 457.131073,822.396790 451.056427,818.578308 
	C444.078918,814.192383 435.150116,816.536011 431.206573,823.635620 
	C427.245911,830.766113 428.695068,842.153076 434.904388,848.689392 
z"/>
<path fill="#000000" opacity="1.000000" stroke="none" 
	d="
M532.315063,695.059570 
	C532.416016,713.354004 532.247375,731.153320 532.991821,748.955078 
	C533.611633,763.776184 526.376160,773.374268 511.823700,776.675049 
	C498.038788,779.801758 485.512543,776.462219 474.941406,766.878296 
	C472.202515,764.395203 470.484131,761.176636 470.435455,756.433838 
	C478.430817,757.851257 486.524323,753.986877 493.795074,760.359009 
	C498.489441,764.473206 508.993469,762.591064 513.048828,757.918030 
	C514.898132,755.787109 515.228760,751.462097 513.993530,745.417175 
	C512.483582,744.714600 511.508545,745.946899 510.404663,746.520020 
	C490.706726,756.745789 470.141296,745.160095 468.782715,722.871887 
	C468.451294,717.434692 468.638489,711.981506 469.477570,706.478149 
	C472.564545,686.230835 495.823090,680.010559 509.817017,687.967957 
	C511.401794,688.869202 512.957458,689.821594 514.535400,690.755432 
	C517.292419,684.909424 520.555298,683.736267 528.994934,685.564270 
	C534.765869,686.814087 531.331543,691.518372 532.315063,695.059570 
M486.347137,716.589050 
	C486.440308,718.077637 486.372650,719.597290 486.653290,721.049683 
	C488.216553,729.139221 493.409485,733.812134 500.786926,733.883606 
	C508.581329,733.959106 513.209106,729.916748 515.149536,721.489075 
	C516.032898,717.652405 515.660828,713.916870 514.730469,710.165833 
	C513.185608,703.937073 508.411102,699.873535 502.001953,699.387512 
	C495.845276,698.920593 490.231079,702.485107 488.066071,708.507751 
	C487.233124,710.824829 486.914093,713.326721 486.347137,716.589050 
z"/>
<path fill="#000000" opacity="1.000000" stroke="none" 
	d="
M686.009827,865.687561 
	C685.487976,868.369751 683.723755,868.310547 682.050354,868.345703 
	C680.053894,868.387695 678.055908,868.352356 676.059021,868.381226 
	C669.164124,868.480835 669.164185,868.485962 668.554993,861.907104 
	C667.130188,861.642212 666.603210,862.947449 665.800720,863.613770 
	C655.021667,872.564270 641.194275,872.138855 631.065308,862.483521 
	C618.159546,850.181335 616.717407,826.475952 628.034241,812.658691 
	C636.968872,801.749878 650.838684,799.399231 662.889282,806.748535 
	C664.283752,807.598999 665.687988,808.433350 667.671936,809.626587 
	C667.671936,801.230225 667.858032,793.312622 667.597107,785.409851 
	C667.456543,781.152832 668.723267,779.463074 673.222168,779.591492 
	C687.356384,779.994690 685.161133,777.915894 685.338135,791.344055 
	C685.662659,815.968323 686.493042,840.588074 686.009827,865.687561 
M668.477905,841.626648 
	C668.570435,838.479492 668.948608,835.309326 668.698120,832.189697 
	C668.111084,824.875305 662.585144,818.987549 655.988770,818.252563 
	C648.700195,817.440491 643.085693,821.233398 640.469177,828.673523 
	C639.458923,831.546143 639.264343,834.487793 639.328613,837.499756 
	C639.521423,846.543152 644.971741,853.267029 653.140076,854.436279 
	C659.302185,855.318359 665.425415,850.438660 668.477905,841.626648 
z"/>
<path fill="#000000" opacity="1.000000" stroke="none" 
	d="
M489.364197,855.496460 
	C476.522461,835.060913 485.847290,808.749634 508.029816,803.454712 
	C528.835205,798.488464 544.773987,811.836060 545.259521,831.282776 
	C545.549255,842.888306 547.157104,841.926819 534.732727,841.975464 
	C526.071411,842.009338 517.409729,841.965881 508.748566,842.015198 
	C506.798187,842.026306 504.740417,841.583862 502.972260,842.851868 
	C503.375305,852.080200 514.877625,857.732544 523.624695,852.333069 
	C530.661011,847.989563 537.626587,850.302795 545.154358,849.895935 
	C544.062317,858.648682 539.334595,863.894043 532.293396,867.040527 
	C518.691162,873.119019 498.893250,870.371826 489.364197,855.496460 
M527.725708,824.487610 
	C523.800903,818.226868 519.747070,816.182312 513.791504,817.459839 
	C508.466278,818.602173 504.315247,822.601257 503.483948,827.697815 
	C510.818878,827.697815 518.099731,827.718262 525.380249,827.681824 
	C526.971069,827.673889 528.515625,827.417847 527.725708,824.487610 
z"/>
<path fill="#000000" opacity="1.000000" stroke="none" 
	d="
M352.643250,862.418640 
	C340.431061,850.433289 338.280151,836.674500 344.342957,821.456482 
	C349.631317,808.182373 363.405792,800.778076 378.446960,802.765137 
	C391.280823,804.460693 400.668457,814.700134 402.453522,828.950378 
	C404.077026,841.910461 404.077118,841.927979 391.040771,841.993103 
	C382.550934,842.035522 374.060730,841.998962 365.570923,842.042297 
	C363.770508,842.051453 361.898376,841.714905 360.220551,842.717224 
	C360.836487,852.129944 371.468933,857.829712 380.207916,852.518921 
	C387.437714,848.125183 394.582703,850.359009 401.824554,849.779785 
	C402.002472,857.531555 396.107849,864.981018 387.385132,867.787598 
	C375.130035,871.730957 363.453217,870.766174 352.643250,862.418640 
M373.496521,827.746948 
	C377.653564,827.450989 381.937622,828.353088 386.145386,827.005249 
	C383.339081,819.772034 379.445679,816.922974 373.393402,817.262085 
	C367.380127,817.598877 362.600586,821.449829 361.240662,827.277954 
	C364.966949,828.399414 368.781403,827.489929 373.496521,827.746948 
z"/>
<path fill="#000000" opacity="1.000000" stroke="none" 
	d="
M370.281769,685.166931 
	C385.428192,689.028442 393.116364,698.788086 393.355988,714.066772 
	C393.526306,724.926941 393.526306,724.930847 382.317352,724.936707 
	C372.022888,724.942078 361.728424,724.937805 351.396301,724.937805 
	C352.011536,734.560730 363.097626,740.230408 371.378815,734.888062 
	C378.217316,730.476379 384.998199,732.129944 392.629944,731.771912 
	C392.413757,739.382874 388.972687,744.712524 383.160492,748.044861 
	C372.051453,754.414124 360.358276,754.124390 349.250275,748.255798 
	C338.627563,742.643555 332.915222,733.354980 332.613251,721.144653 
	C332.128967,701.562134 341.426910,689.166077 359.449829,685.158142 
	C362.918579,684.386841 366.390594,684.535828 370.281769,685.166931 
M373.873474,703.568237 
	C370.320526,700.045898 366.343750,698.180847 361.333954,700.366089 
	C356.943787,702.281067 352.708588,704.350464 351.514008,710.234985 
	C360.233917,710.234985 368.509888,710.234985 376.803833,710.234985 
	C377.108948,707.407410 375.658630,705.780518 373.873474,703.568237 
z"/>
<path fill="#000000" opacity="1.000000" stroke="none" 
	d="
M635.475830,733.636597 
	C641.096191,737.523071 646.979492,738.181519 652.135193,734.477234 
	C658.701416,729.759399 665.475159,732.557556 672.115601,731.687805 
	C673.089661,740.995361 664.595764,748.196472 657.681213,750.605103 
	C639.372986,756.982544 618.758240,747.258362 613.880920,729.247009 
	C609.073853,711.495544 616.366821,690.232727 638.166748,685.319214 
	C655.834839,681.337097 672.761230,693.692383 673.206543,711.978271 
	C673.576904,727.186401 675.511963,724.711365 661.032532,724.921814 
	C653.370544,725.033203 645.705444,724.906189 638.042114,724.954590 
	C635.760315,724.968994 633.479980,725.213440 630.873962,725.372314 
	C631.192200,729.065674 632.916077,731.379700 635.475830,733.636597 
M654.365417,704.080200 
	C650.570251,699.826416 646.129150,698.058228 640.633789,700.612244 
	C636.464417,702.549927 632.571167,704.775513 631.498657,710.112793 
	C640.425537,710.112793 648.690125,710.112793 656.953430,710.112793 
	C656.936462,707.592468 655.879517,706.105469 654.365417,704.080200 
z"/>
<path fill="#000000" opacity="1.000000" stroke="none" 
	d="
M451.018127,751.372437 
	C447.561829,750.913147 444.267120,752.470093 441.627472,749.599487 
	C440.553680,748.431702 439.173370,749.856812 437.990265,750.312500 
	C428.540131,753.952515 419.397430,753.263733 410.702271,748.125244 
	C403.452545,743.841003 400.801270,737.190613 401.714874,729.028503 
	C402.572357,721.367249 406.637817,716.227417 413.999512,713.625793 
	C420.780182,711.229492 428.023224,710.964111 434.853729,708.854797 
	C437.939575,707.901855 442.577393,708.633545 442.260132,703.531677 
	C442.018097,699.639832 435.453369,696.613770 430.947906,697.792725 
	C428.266693,698.494385 426.270599,700.234375 424.248444,701.981018 
	C420.958374,704.822815 411.756012,705.857605 407.947510,703.880676 
	C406.367859,703.060669 406.024872,701.783691 406.304413,700.119995 
	C407.059143,695.627991 409.236969,692.060547 412.928864,689.376953 
	C423.084534,681.995117 443.146057,682.309937 452.960571,690.159485 
	C457.653992,693.913208 460.093536,698.795837 459.578552,704.977966 
	C458.487091,718.080505 458.093506,731.206909 458.239105,744.355408 
	C458.315643,751.265869 458.221558,751.266907 451.018127,751.372437 
M426.909058,737.627930 
	C433.051697,737.690308 440.679871,731.337463 441.697601,725.368225 
	C442.235992,722.210144 440.971466,720.886169 437.862000,721.566528 
	C433.816559,722.451660 429.752319,723.308533 425.786682,724.483154 
	C422.306030,725.514099 419.186066,727.304382 419.260010,731.599121 
	C419.335052,735.959167 422.839508,736.689331 426.909058,737.627930 
z"/>
<path fill="#000000" opacity="1.000000" stroke="none" 
	d="
M552.032227,685.884888 
	C563.958374,686.064514 562.149719,685.070190 562.262695,695.939087 
	C562.363220,705.604004 562.250244,715.270935 562.314819,724.936401 
	C562.368713,733.009155 565.781433,736.990662 572.414856,736.924744 
	C579.715210,736.852173 584.669128,732.089966 584.726624,724.909058 
	C584.815918,713.744202 584.940857,702.576233 584.760376,691.414307 
	C584.694336,687.330139 586.028259,685.854492 590.193176,685.813171 
	C604.351929,685.672974 604.229919,685.546021 604.375916,699.505859 
	C604.529114,714.157715 603.764587,728.815063 604.987488,743.465820 
	C605.613647,750.967468 604.951416,751.357544 597.478699,751.381165 
	C595.478882,751.387512 593.478699,751.401123 591.479248,751.374268 
	C587.127197,751.315796 587.127319,751.305969 585.173462,747.261963 
	C576.358215,754.360107 566.657654,754.115417 557.210266,749.443726 
	C547.060791,744.424866 543.615356,734.781250 542.757935,724.205994 
	C541.812805,712.548401 543.614563,700.922424 543.792908,689.264160 
	C543.877319,683.746582 548.780518,686.665894 552.032227,685.884888 
z"/>
<path fill="#000000" opacity="1.000000" stroke="none" 
	d="
M613.349915,827.149841 
	C613.536743,839.086121 613.583069,850.567932 613.972656,862.038086 
	C614.127502,866.598389 612.984985,868.643066 607.900635,868.450806 
	C594.040039,867.926636 595.907471,870.236145 595.766785,856.081787 
	C595.679077,847.259399 595.822510,838.434021 595.674805,829.613159 
	C595.555176,822.472656 591.295959,818.267761 584.571350,818.284241 
	C577.595581,818.301331 573.158081,822.672180 573.130310,829.887451 
	C573.087341,841.040527 573.127808,852.196167 573.337097,863.346863 
	C573.405273,866.984131 572.121094,868.412781 568.441650,868.404602 
	C564.804932,868.396545 561.164001,868.967712 557.530151,869.336365 
	C554.836792,869.609680 554.009460,868.265930 554.080200,865.788757 
	C554.631104,846.505188 555.199890,827.221741 555.602295,807.934814 
	C555.671143,804.632812 556.973450,803.463623 560.089294,803.652161 
	C562.079224,803.772461 564.088562,803.752380 566.079651,803.633911 
	C569.838440,803.410034 573.240601,803.552002 572.525574,809.935608 
	C581.136475,802.109192 589.969604,799.265686 599.630432,804.812561 
	C607.915833,809.569702 612.670227,816.955688 613.349915,827.149841 
z"/>
<path fill="#000000" opacity="1.000000" stroke="none" 
	d="
M745.509521,812.748535 
	C750.404358,821.935852 749.695374,823.018311 739.582520,823.048828 
	C735.940247,823.059814 732.996033,822.364624 730.205261,819.527832 
	C726.666504,815.930786 721.982849,815.370056 717.255798,817.552490 
	C715.562744,818.334167 713.830200,819.469543 713.797424,821.485779 
	C713.761719,823.683289 715.777100,824.439636 717.519714,824.969421 
	C720.856384,825.983704 724.251770,826.804932 727.623779,827.702515 
	C732.795837,829.079346 737.815796,830.758972 742.152832,834.082275 
	C751.401794,841.169312 752.637329,852.925781 744.991089,861.694397 
	C733.008118,875.436279 704.776428,871.999207 696.627625,855.784851 
	C695.674744,853.888977 694.449341,852.001526 695.312256,849.003296 
	C701.382141,849.564392 707.836670,845.938293 713.414673,852.456482 
	C716.988586,856.632751 725.265564,856.703552 729.733704,853.755615 
	C733.446899,851.305786 733.482971,848.240417 729.670227,846.003235 
	C726.332153,844.044434 722.507202,843.358704 718.811279,842.397156 
	C713.630981,841.049377 708.564087,839.407776 704.053833,836.464539 
	C692.174683,828.712585 692.781860,813.779480 705.040833,806.720459 
	C717.306274,799.657776 738.350037,801.730896 745.509521,812.748535 
z"/>
<path fill="#000000" opacity="1.000000" stroke="none" 
	d="
M288.323120,728.757263 
	C287.621094,733.779053 289.827393,734.863770 294.046753,734.749573 
	C303.527313,734.492737 313.022064,734.797974 322.506378,734.622559 
	C326.179016,734.554688 327.495026,735.844299 327.410797,739.526306 
	C327.086426,753.709290 329.122192,751.184265 316.054382,751.333984 
	C302.407257,751.490356 288.754791,751.227112 275.109283,751.441956 
	C270.701019,751.511292 268.932983,750.355469 268.962189,745.590881 
	C269.119324,719.958923 269.081787,694.324097 268.834595,668.692871 
	C268.787170,663.774536 270.493195,662.095703 275.189789,662.609070 
	C277.657349,662.878784 280.202209,662.883179 282.669647,662.615417 
	C287.165375,662.127563 288.365265,664.120178 288.334595,668.370728 
	C288.190430,688.343506 288.302002,708.318237 288.323120,728.757263 
z"/>
<path fill="#000000" opacity="1.000000" stroke="none" 
	d="
M306.124023,852.657959 
	C314.926117,852.656494 323.250549,852.792114 331.567017,852.594238 
	C335.482697,852.501160 337.311493,853.550232 337.223297,857.882568 
	C336.943176,871.640686 338.390747,869.173645 325.847992,869.302246 
	C312.036346,869.443909 298.220276,869.199951 284.410004,869.396484 
	C280.214752,869.456177 278.547119,868.382019 278.579254,863.831238 
	C278.764862,837.537720 278.740906,811.241638 278.580780,784.947754 
	C278.554840,780.685303 280.158508,779.634399 284.130829,779.621094 
	C297.332245,779.576965 297.332123,779.448303 297.336151,792.755737 
	C297.341370,809.897339 297.346222,827.038940 297.350891,844.180542 
	C297.353210,852.636963 297.352905,852.636963 306.124023,852.657959 
z"/>
<path fill="#000000" opacity="1.000000" stroke="none" 
	d="
M723.186646,697.673096 
	C737.962952,697.740479 747.109253,703.643372 749.659607,715.360779 
	C751.178406,722.338745 751.210999,729.621033 749.187744,736.594849 
	C746.186523,746.939758 737.265381,753.617065 726.204590,754.249512 
	C716.108582,754.826782 707.128052,749.276245 702.895691,739.500000 
	C699.868774,732.508118 698.607483,725.244812 700.438782,717.617981 
	C703.400208,705.284302 710.033875,699.277222 723.186646,697.673096 
M716.185730,717.871094 
	C714.855530,722.937439 714.636597,728.034973 716.417236,733.002869 
	C717.869812,737.055420 720.651184,739.729919 725.286865,739.648987 
	C729.834229,739.569702 732.638184,736.969788 734.244080,732.969849 
	C736.175537,728.158997 736.059143,723.225037 734.437988,718.380920 
	C732.965942,713.982483 730.081177,710.778992 725.211548,710.523438 
	C720.691223,710.286316 717.798401,712.855774 716.185730,717.871094 
z"/>
<path fill="#000000" opacity="1.000000" stroke="none" 
	d="
M757.678894,732.000000 
	C757.659790,726.177185 757.592163,720.853638 757.648376,715.531494 
	C757.674500,713.061523 757.199707,711.544495 754.190857,711.266541 
	C749.464478,710.829895 751.321167,706.851685 751.100098,704.227905 
	C750.905884,701.921936 750.157471,698.838135 754.131958,698.702881 
	C756.281494,698.629700 757.173584,697.707275 757.831055,695.563538 
	C761.411682,683.889099 771.239746,678.527893 782.966492,681.849365 
	C787.233337,683.057861 784.801331,686.865417 785.261902,689.489136 
	C785.649353,691.696289 784.889160,693.389404 782.093933,693.360352 
	C780.114624,693.339722 778.093201,693.433289 776.163635,693.830750 
	C774.661194,694.140198 773.343811,695.185730 773.559448,696.985229 
	C773.778748,698.816223 775.389709,698.540894 776.683594,698.654846 
	C783.463806,699.251770 783.221863,699.262329 783.432983,706.125061 
	C783.563721,710.376892 781.953796,711.874390 777.936035,711.365479 
	C774.269836,710.901001 772.905396,712.545654 772.993713,716.225952 
	C773.233215,726.202332 773.103760,736.187866 773.371277,746.163025 
	C773.472168,749.927124 772.464600,751.564087 768.361755,751.437561 
	C757.254700,751.094971 757.829041,752.815002 757.731140,740.983276 
	C757.707764,738.155518 757.697388,735.327698 757.678894,732.000000 
z"/>
</svg>